<svg version="1.1" viewBox="0.0 0.0 960.0 540.0" fill="none" stroke="none" stroke-linecap="square" stroke-miterlimit="10" xmlns:xlink="http://www.w3.org/1999/xlink" xmlns="http://www.w3.org/2000/svg"><clipPath id="p.0"><path d="m0 0l960.0 0l0 540.0l-960.0 0l0 -540.0z" clip-rule="nonzero"/></clipPath><g clip-path="url(#p.0)"><path fill="#ffffff" d="m0 0l960.0 0l0 540.0l-960.0 0z" fill-rule="evenodd"/><path fill="#e91d63" d="m516.31494 307.98425l-36.31494 40.787415l-36.314972 -40.787415z" fill-rule="evenodd"/><path fill="#e91d63" d="m-0.002624672 0l960.0 0l0 328.0l-960.0 0z" fill-rule="evenodd"/><path fill="#000000" fill-opacity="0.0" d="m43.16798 67.64304l869.54333 0l0 221.41733l-869.54333 0z" fill-rule="evenodd"/><path fill="#ffffff" d="m145.16621 254.71974l26.953125 0l0 6.1406097l-34.484375 0l0 -56.874985l7.53125 0l0 50.734375zm47.507812 -3.828125l16.25 -46.90625l8.203125 0l-21.09375 56.874985l-6.640625 0l-21.0625 -56.874985l8.171875 0l16.171875 46.90625zm48.820312 -15.390625q-9.640625 -2.765625 -14.046875 -6.8125q-4.390625 -4.046875 -4.390625 -9.984375q0 -6.71875 5.375 -11.109375q5.375 -4.390625 13.96875 -4.390625q5.859375 0 10.4375 2.265625q4.5937347 2.265625 7.1093597 6.25q2.53125 3.984375 2.53125 8.703125l-7.5468597 0q0 -5.15625 -3.28125 -8.09375q-3.28125 -2.953125 -9.25 -2.953125q-5.546875 0 -8.65625 2.4375q-3.109375 2.4375 -3.109375 6.78125q0 3.46875 2.953125 5.875q2.953125 2.40625 10.03125 4.40625q7.09375 1.984375 11.09375 4.390625q4.0156097 2.390625 5.9374847 5.59375q1.9375 3.203125 1.9375 7.546875q0 6.90625 -5.390625 11.07811q-5.3906097 4.15625 -14.406235 4.15625q-5.859375 0 -10.9375 -2.25q-5.078125 -2.25 -7.84375 -6.1562347q-2.75 -3.90625 -2.75 -8.859375l7.546875 0q0 5.15625 3.796875 8.140625q3.8125 2.984375 10.1875 2.984375q5.9375 0 9.09375 -2.421875q3.171875 -2.421875 3.171875 -6.59375q0 -4.1875 -2.9375 -6.46875q-2.921875 -2.28125 -10.625 -4.515625zm75.468735 25.35936q-0.625 -1.25 -1.015625 -4.453125q-5.03125 5.234375 -12.03125 5.234375q-6.25 0 -10.25 -3.53125q-4.0 -3.5468597 -4.0 -8.968735q0 -6.609375 5.015625 -10.25q5.015625 -3.65625 14.125 -3.65625l7.03125 0l0 -3.328125q0 -3.78125 -2.265625 -6.03125q-2.265625 -2.25 -6.6875 -2.25q-3.859375 0 -6.484375 1.953125q-2.609375 1.953125 -2.609375 4.734375l-7.265625 0q0 -3.171875 2.234375 -6.109375q2.25 -2.953125 6.09375 -4.671875q3.859375 -1.71875 8.46875 -1.71875q7.296875 0 11.4375 3.65625q4.140625 3.640625 4.296875 10.046875l0 19.453125q0 5.8281097 1.484375 9.26561l0 0.625l-7.578125 0zm-11.984375 -5.5156097q3.390625 0 6.4375 -1.75q3.046875 -1.765625 4.421875 -4.578125l0 -8.671875l-5.671875 0q-13.28125 0 -13.28125 7.78125q0 3.390625 2.265625 5.3125q2.265625 1.90625 5.828125 1.90625zm36.25 -36.75l0.234375 5.3125q4.84375 -6.09375 12.65625 -6.09375q13.390625 0 13.515625 15.109375l0 27.937485l-7.234375 0l0 -27.968735q-0.03125 -4.578125 -2.09375 -6.765625q-2.046875 -2.1875 -6.375 -2.1875q-3.515625 0 -6.171875 1.875q-2.65625 1.875 -4.140625 4.921875l0 30.124985l-7.234375 0l0 -42.26561l6.84375 0zm35.546875 20.78125q0 -9.734375 4.609375 -15.640625q4.609375 -5.921875 12.0625 -5.921875q7.421875 0 11.765625 5.078125l0 -22.03125l7.21875 0l0 59.999985l-6.640625 0l-0.34375 -4.53125q-4.34375 5.3125 -12.078125 5.3125q-7.34375 0 -11.96875 -6.0156097q-4.625 -6.015625 -4.625 -15.703125l0 -0.546875zm7.21875 0.8125q0 7.1875 2.96875 11.25q2.96875 4.0625 8.203125 4.0625q6.875 0 10.046875 -6.171875l0 -19.40625q-3.25 -5.984375 -9.96875 -5.984375q-5.3125 0 -8.28125 4.109375q-2.96875 4.09375 -2.96875 12.140625zm75.046875 -5.78125l-6.953125 7.234375l0 19.218735l-7.5 0l0 -56.874985l7.5 0l0 28.125l25.265625 -28.125l9.0625 0l-22.375 25.109375l24.140625 31.76561l-8.984375 0l-20.15625 -26.45311zm51.09375 27.23436q-8.59375 0 -13.984375 -5.640625q-5.390625 -5.6562347 -5.390625 -15.10936l0 -1.328125q0 -6.28125 2.390625 -11.21875q2.40625 -4.953125 6.71875 -7.734375q4.328125 -2.796875 9.359375 -2.796875q8.25 0 12.8125 5.4375q4.578125 5.421875 4.578125 15.53125l0 3.015625l-28.640625 0q0.15625 6.25 3.65625 10.09375q3.5 3.84375 8.890625 3.84375q3.828125 0 6.484375 -1.5625q2.65625 -1.5625 4.640625 -4.140625l4.421875 3.4375q-5.3125 8.17186 -15.9375 8.17186zm-0.90625 -37.89061q-4.375 0 -7.34375 3.1875q-2.96875 3.171875 -3.671875 8.921875l21.171875 0l0 -0.546875q-0.3125 -5.515625 -2.96875 -8.53125q-2.65625 -3.03125 -7.1875 -3.03125zm43.289062 37.89061q-8.59375 0 -13.984375 -5.640625q-5.390625 -5.6562347 -5.390625 -15.10936l0 -1.328125q0 -6.28125 2.390625 -11.21875q2.40625 -4.953125 6.71875 -7.734375q4.328125 -2.796875 9.359375 -2.796875q8.25 0 12.8125 5.4375q4.578125 5.421875 4.578125 15.53125l0 3.015625l-28.640625 0q0.15625 6.25 3.65625 10.09375q3.5 3.84375 8.890625 3.84375q3.828125 0 6.484375 -1.5625q2.65625 -1.5625 4.640625 -4.140625l4.421875 3.4375q-5.3125 8.17186 -15.9375 8.17186zm-0.90625 -37.89061q-4.375 0 -7.34375 3.1875q-2.96875 3.171875 -3.671875 8.921875l21.171875 0l0 -0.546875q-0.3125 -5.515625 -2.96875 -8.53125q-2.65625 -3.03125 -7.1875 -3.03125zm61.445312 16.4375q0 9.65625 -4.421875 15.5625q-4.40625 5.8906097 -11.9375 5.8906097q-7.703125 0 -12.109375 -4.890625l0 20.359375l-7.234375 0l0 -58.51561l6.609375 0l0.34375 4.6875q4.421875 -5.46875 12.265625 -5.46875q7.625 0 12.046875 5.75q4.4375 5.734375 4.4375 15.96875l0 0.65625zm-7.21875 -0.8125q0 -7.15625 -3.046875 -11.296875q-3.046875 -4.140625 -8.359375 -4.140625q-6.5625 0 -9.84375 5.828125l0 20.1875q3.234375 5.78125 9.921875 5.78125q5.1875 0 8.25 -4.109375q3.078125 -4.125 3.078125 -12.25zm42.492188 21.48436q-0.625 -1.25 -1.015625 -4.453125q-5.03125 5.234375 -12.03125 5.234375q-6.25 0 -10.25 -3.53125q-4.0 -3.5468597 -4.0 -8.968735q0 -6.609375 5.015625 -10.25q5.015625 -3.65625 14.125 -3.65625l7.03125 0l0 -3.328125q0 -3.78125 -2.265625 -6.03125q-2.265625 -2.25 -6.6875 -2.25q-3.859375 0 -6.484375 1.953125q-2.609375 1.953125 -2.609375 4.734375l-7.265625 0q0 -3.171875 2.234375 -6.109375q2.25 -2.953125 6.09375 -4.671875q3.859375 -1.71875 8.46875 -1.71875q7.296875 0 11.4375 3.65625q4.140625 3.640625 4.296875 10.046875l0 19.453125q0 5.8281097 1.484375 9.26561l0 0.625l-7.578125 0zm-11.984375 -5.5156097q3.390625 0 6.4375 -1.75q3.046875 -1.765625 4.421875 -4.578125l0 -8.671875l-5.671875 0q-13.28125 0 -13.28125 7.78125q0 3.390625 2.265625 5.3125q2.265625 1.90625 5.828125 1.90625zm37.265625 5.5156097l-7.234375 0l0 -59.999985l7.234375 0l0 59.999985zm19.414062 0l-7.234375 0l0 -42.26561l7.234375 0l0 42.26561zm-7.8125 -53.48436q0 -1.75 1.0625 -2.953125q1.078125 -1.21875 3.1875 -1.21875q2.109375 0 3.203125 1.21875q1.09375 1.203125 1.09375 2.96875q0 1.75 -1.09375 2.921875q-1.09375 1.171875 -3.203125 1.171875q-2.109375 0 -3.1875 -1.171875q-1.0625 -1.171875 -1.0625 -2.9375zm33.320312 43.671875l10.46875 -32.453125l7.375 0l-15.15625 42.26561l-5.5 0l-15.3125 -42.26561l7.375 0l10.75 32.453125zm41.835938 10.593735q-8.59375 0 -13.984375 -5.640625q-5.390625 -5.6562347 -5.390625 -15.10936l0 -1.328125q0 -6.28125 2.390625 -11.21875q2.40625 -4.953125 6.71875 -7.734375q4.328125 -2.796875 9.359375 -2.796875q8.25 0 12.8125 5.4375q4.578125 5.421875 4.578125 15.53125l0 3.015625l-28.640625 0q0.15625 6.25 3.65625 10.09375q3.5 3.84375 8.890625 3.84375q3.828125 0 6.484375 -1.5625q2.65625 -1.5625 4.640625 -4.140625l4.421875 3.4375q-5.3125 8.17186 -15.9375 8.17186zm-0.90625 -37.89061q-4.375 0 -7.34375 3.1875q-2.96875 3.171875 -3.671875 8.921875l21.171875 0l0 -0.546875q-0.3125 -5.515625 -2.96875 -8.53125q-2.65625 -3.03125 -7.1875 -3.03125zm23.992188 15.625q0 -9.734375 4.609375 -15.640625q4.609375 -5.921875 12.0625 -5.921875q7.421875 0 11.765625 5.078125l0 -22.03125l7.21875 0l0 59.999985l-6.640625 0l-0.34375 -4.53125q-4.34375 5.3125 -12.078125 5.3125q-7.34375 0 -11.96875 -6.0156097q-4.625 -6.015625 -4.625 -15.703125l0 -0.546875zm7.21875 0.8125q0 7.1875 2.96875 11.25q2.96875 4.0625 8.203125 4.0625q6.875 0 10.046875 -6.171875l0 -19.40625q-3.25 -5.984375 -9.96875 -5.984375q-5.3125 0 -8.28125 4.109375q-2.96875 4.09375 -2.96875 12.140625z" fill-rule="nonzero"/><path fill="#000000" fill-opacity="0.0" d="m43.16798 356.77167l869.54333 0l0 132.34644l-869.54333 0z" fill-rule="evenodd"/><path fill="#424242" d="m187.16231 436.33737l16.171875 0l0 3.6875l-20.6875 0l0 -34.125l4.515625 0l0 30.4375zm28.507812 -2.296875l9.75 -28.140625l4.921875 0l-12.65625 34.125l-3.984375 0l-12.640625 -34.125l4.90625 0l9.703125 28.140625zm29.289062 -9.234375q-5.78125 -1.65625 -8.421875 -4.078125q-2.640625 -2.4375 -2.640625 -6.0q0 -4.03125 3.21875 -6.65625q3.234375 -2.640625 8.390625 -2.640625q3.515625 0 6.265625 1.359375q2.75 1.359375 4.2656097 3.75q1.515625 2.390625 1.515625 5.21875l-4.5312347 0q0 -3.09375 -1.96875 -4.859375q-1.96875 -1.765625 -5.546875 -1.765625q-3.328125 0 -5.203125 1.46875q-1.859375 1.453125 -1.859375 4.0625q0 2.078125 1.765625 3.53125q1.78125 1.4375 6.03125 2.640625q4.25 1.1875 6.65625 2.625q2.40625 1.4375 3.5624847 3.359375q1.15625 1.921875 1.15625 4.53125q0 4.140625 -3.2343597 6.640625q-3.234375 2.5 -8.640625 2.5q-3.515625 0 -6.5625 -1.34375q-3.046875 -1.359375 -4.703125 -3.703125q-1.65625 -2.34375 -1.65625 -5.3125l4.53125 0q0 3.09375 2.28125 4.890625q2.28125 1.78125 6.109375 1.78125q3.5625 0 5.453125 -1.453125q1.90625 -1.453125 1.90625 -3.953125q0 -2.515625 -1.765625 -3.875q-1.75 -1.375 -6.375 -2.71875zm26.773422 2.484375l-11.4375 0l0 -3.53125l11.4375 0l0 3.53125zm31.117188 12.734375l-4.515625 0l-17.1875 -26.296875l0 26.296875l-4.515625 0l0 -34.125l4.515625 0l17.234375 26.40625l0 -26.40625l4.46875 0l0 34.125zm27.265625 -8.90625l-14.296875 0l-3.21875 8.90625l-4.640625 0l13.03125 -34.125l3.9375 0l13.0625 34.125l-4.625 0l-3.25 -8.90625zm-12.9375 -3.703125l11.59375 0l-5.8125 -15.96875l-5.78125 15.96875zm45.960938 -17.8125l-10.96875 0l0 30.421875l-4.484375 0l0 -30.421875l-10.9375 0l0 -3.703125l26.390625 0l0 3.703125zm19.632812 36.75l-3.484375 0l0 -40.453125l3.484375 0l0 40.453125zm24.46875 -10.015625l16.171875 0l0 3.6875l-20.6875 0l0 -34.125l4.515625 0l0 30.4375zm28.507812 -2.296875l9.75 -28.140625l4.921875 0l-12.65625 34.125l-3.984375 0l-12.640625 -34.125l4.90625 0l9.703125 28.140625zm29.289062 -9.234375q-5.78125 -1.65625 -8.421875 -4.078125q-2.640625 -2.4375 -2.640625 -6.0q0 -4.03125 3.21875 -6.65625q3.234375 -2.640625 8.390625 -2.640625q3.515625 0 6.265625 1.359375q2.75 1.359375 4.265625 3.75q1.515625 2.390625 1.515625 5.21875l-4.53125 0q0 -3.09375 -1.96875 -4.859375q-1.96875 -1.765625 -5.546875 -1.765625q-3.328125 0 -5.203125 1.46875q-1.859375 1.453125 -1.859375 4.0625q0 2.078125 1.765625 3.53125q1.78125 1.4375 6.03125 2.640625q4.25 1.1875 6.65625 2.625q2.40625 1.4375 3.5625 3.359375q1.15625 1.921875 1.15625 4.53125q0 4.140625 -3.234375 6.640625q-3.234375 2.5 -8.640625 2.5q-3.515625 0 -6.5625 -1.34375q-3.046875 -1.359375 -4.703125 -3.703125q-1.65625 -2.34375 -1.65625 -5.3125l4.53125 0q0 3.09375 2.28125 4.890625q2.28125 1.78125 6.109375 1.78125q3.5625 0 5.453125 -1.453125q1.90625 -1.453125 1.90625 -3.953125q0 -2.515625 -1.765625 -3.875q-1.75 -1.375 -6.375 -2.71875zm26.773438 2.484375l-11.4375 0l0 -3.53125l11.4375 0l0 3.53125zm4.8984375 12.734375l0 -34.125l9.625 0q4.453125 0 7.875 1.96875q3.421875 1.96875 5.28125 5.609375q1.875 3.625 1.890625 8.328125l0 2.1875q0 4.828125 -1.859375 8.46875q-1.859375 3.625 -5.328125 5.578125q-3.453125 1.9375 -8.046875 1.984375l-9.4375 0zm4.5 -30.421875l0 26.734375l4.734375 0q5.203125 0 8.09375 -3.234375q2.890625 -3.234375 2.890625 -9.203125l0 -2.0q0 -5.8125 -2.734375 -9.03125q-2.71875 -3.21875 -7.734375 -3.265625l-5.25 0zm39.492188 16.609375l-8.015625 0l0 13.8125l-4.53125 0l0 -34.125l11.296875 0q5.765625 0 8.875 2.625q3.109375 2.625 3.109375 7.640625q0 3.1875 -1.734375 5.5625q-1.71875 2.359375 -4.78125 3.53125l8.015625 14.484375l0 0.28125l-4.828125 0l-7.40625 -13.8125zm-8.015625 -3.671875l6.90625 0q3.359375 0 5.328125 -1.734375q1.984375 -1.734375 1.984375 -4.640625q0 -3.171875 -1.890625 -4.859375q-1.875 -1.6875 -5.4375 -1.703125l-6.890625 0l0 12.9375zm40.5625 23.8125l-3.484375 0l0 -40.453125l3.484375 0l0 40.453125zm24.46875 -10.015625l16.171875 0l0 3.6875l-20.6875 0l0 -34.125l4.515625 0l0 30.4375zm28.507812 -2.296875l9.75 -28.140625l4.921875 0l-12.65625 34.125l-3.984375 0l-12.640625 -34.125l4.90625 0l9.703125 28.140625zm29.289062 -9.234375q-5.78125 -1.65625 -8.421875 -4.078125q-2.640625 -2.4375 -2.640625 -6.0q0 -4.03125 3.21875 -6.65625q3.234375 -2.640625 8.390625 -2.640625q3.515625 0 6.265625 1.359375q2.75 1.359375 4.265625 3.75q1.515625 2.390625 1.515625 5.21875l-4.53125 0q0 -3.09375 -1.96875 -4.859375q-1.96875 -1.765625 -5.546875 -1.765625q-3.328125 0 -5.203125 1.46875q-1.859375 1.453125 -1.859375 4.0625q0 2.078125 1.765625 3.53125q1.78125 1.4375 6.03125 2.640625q4.25 1.1875 6.65625 2.625q2.40625 1.4375 3.5625 3.359375q1.15625 1.921875 1.15625 4.53125q0 4.140625 -3.234375 6.640625q-3.234375 2.5 -8.640625 2.5q-3.515625 0 -6.5625 -1.34375q-3.046875 -1.359375 -4.703125 -3.703125q-1.65625 -2.34375 -1.65625 -5.3125l4.53125 0q0 3.09375 2.28125 4.890625q2.28125 1.78125 6.109375 1.78125q3.5625 0 5.453125 -1.453125q1.90625 -1.453125 1.90625 -3.953125q0 -2.515625 -1.765625 -3.875q-1.75 -1.375 -6.375 -2.71875zm26.773438 2.484375l-11.4375 0l0 -3.53125l11.4375 0l0 3.53125zm28.476562 -17.6875l-10.96875 0l0 30.421875l-4.484375 0l0 -30.421875l-10.9375 0l0 -3.703125l26.390625 0l0 3.703125zm29.078125 -3.703125l0 23.203125q-0.015625 4.828125 -3.03125 7.90625q-3.015625 3.0625 -8.171875 3.4375l-1.1875 0.046875q-5.609375 0 -8.9375 -3.015625q-3.328125 -3.03125 -3.375 -8.328125l0 -23.25l4.453125 0l0 23.109375q0 3.703125 2.03125 5.75q2.046875 2.046875 5.828125 2.046875q3.8125 0 5.84375 -2.03125q2.03125 -2.046875 2.03125 -5.75l0 -23.125l4.515625 0zm33.328125 34.125l-4.515625 0l-17.1875 -26.296875l0 26.296875l-4.515625 0l0 -34.125l4.515625 0l17.234375 26.40625l0 -26.40625l4.46875 0l0 34.125z" fill-rule="nonzero"/></g></svg>