<?xml version="1.0" encoding="UTF-8" standalone="no"?>
<!DOCTYPE svg PUBLIC "-//W3C//DTD SVG 1.1//EN"
 "http://www.w3.org/Graphics/SVG/1.1/DTD/svg11.dtd">
<!-- Generated by graphviz version 2.44.1 (20200629.0846)
 -->
<!-- Pages: 1 -->
<svg width="1051pt" height="476pt"
 viewBox="0.00 0.00 1051.27 476.00" xmlns="http://www.w3.org/2000/svg" xmlns:xlink="http://www.w3.org/1999/xlink">
<g id="graph0" class="graph" transform="scale(1 1) rotate(0) translate(4 472)">
<polygon fill="white" stroke="transparent" points="-4,4 -4,-472 1047.27,-472 1047.27,4 -4,4"/>
<!-- [root] provider[&quot;registry.terraform.io/tencentcloudstack/tencentcloud&quot;] -->
<g id="node1" class="node">
<title>[root] provider[&quot;registry.terraform.io/tencentcloudstack/tencentcloud&quot;]</title>
<polygon fill="none" stroke="black" points="361.27,-36 24.11,-18 361.27,0 698.44,-18 361.27,-36"/>
<text text-anchor="middle" x="361.27" y="-14.3" font-family="Times,serif" font-size="14.00">provider[&quot;registry.terraform.io/tencentcloudstack/tencentcloud&quot;]</text>
</g>
<!-- [root] tencentcloud_instance.cvm_demo (expand) -->
<g id="node2" class="node">
<title>[root] tencentcloud_instance.cvm_demo (expand)</title>
<polygon fill="none" stroke="black" points="339.27,-324 137.27,-324 137.27,-288 339.27,-288 339.27,-324"/>
<text text-anchor="middle" x="238.27" y="-302.3" font-family="Times,serif" font-size="14.00">tencentcloud_instance.cvm_demo</text>
</g>
<!-- [root] tencentcloud_security_group.sg_demo (expand) -->
<g id="node5" class="node">
<title>[root] tencentcloud_security_group.sg_demo (expand)</title>
<polygon fill="none" stroke="black" points="596.77,-252 369.77,-252 369.77,-216 596.77,-216 596.77,-252"/>
<text text-anchor="middle" x="483.27" y="-230.3" font-family="Times,serif" font-size="14.00">tencentcloud_security_group.sg_demo</text>
</g>
<!-- [root] tencentcloud_instance.cvm_demo (expand)&#45;&gt;[root] tencentcloud_security_group.sg_demo (expand) -->
<g id="edge10" class="edge">
<title>[root] tencentcloud_instance.cvm_demo (expand)&#45;&gt;[root] tencentcloud_security_group.sg_demo (expand)</title>
<path fill="none" stroke="black" d="M297.89,-287.97C332.72,-278.01 376.85,-265.41 413.32,-254.99"/>
<polygon fill="black" stroke="black" points="414.73,-258.22 423.39,-252.11 412.81,-251.49 414.73,-258.22"/>
</g>
<!-- [root] tencentcloud_subnet.subnet_demo (expand) -->
<g id="node7" class="node">
<title>[root] tencentcloud_subnet.subnet_demo (expand)</title>
<polygon fill="none" stroke="black" points="346.27,-252 142.27,-252 142.27,-216 346.27,-216 346.27,-252"/>
<text text-anchor="middle" x="244.27" y="-230.3" font-family="Times,serif" font-size="14.00">tencentcloud_subnet.subnet_demo</text>
</g>
<!-- [root] tencentcloud_instance.cvm_demo (expand)&#45;&gt;[root] tencentcloud_subnet.subnet_demo (expand) -->
<g id="edge11" class="edge">
<title>[root] tencentcloud_instance.cvm_demo (expand)&#45;&gt;[root] tencentcloud_subnet.subnet_demo (expand)</title>
<path fill="none" stroke="black" d="M239.76,-287.7C240.42,-279.98 241.21,-270.71 241.95,-262.11"/>
<polygon fill="black" stroke="black" points="245.44,-262.37 242.81,-252.1 238.47,-261.77 245.44,-262.37"/>
</g>
<!-- [root] tencentcloud_mysql_instance.mysql_demo (expand) -->
<g id="node3" class="node">
<title>[root] tencentcloud_mysql_instance.mysql_demo (expand)</title>
<polygon fill="none" stroke="black" points="609.27,-324 357.27,-324 357.27,-288 609.27,-288 609.27,-324"/>
<text text-anchor="middle" x="483.27" y="-302.3" font-family="Times,serif" font-size="14.00">tencentcloud_mysql_instance.mysql_demo</text>
</g>
<!-- [root] tencentcloud_mysql_instance.mysql_demo (expand)&#45;&gt;[root] tencentcloud_security_group.sg_demo (expand) -->
<g id="edge12" class="edge">
<title>[root] tencentcloud_mysql_instance.mysql_demo (expand)&#45;&gt;[root] tencentcloud_security_group.sg_demo (expand)</title>
<path fill="none" stroke="black" d="M483.27,-287.7C483.27,-279.98 483.27,-270.71 483.27,-262.11"/>
<polygon fill="black" stroke="black" points="486.77,-262.1 483.27,-252.1 479.77,-262.1 486.77,-262.1"/>
</g>
<!-- [root] tencentcloud_mysql_instance.mysql_demo (expand)&#45;&gt;[root] tencentcloud_subnet.subnet_demo (expand) -->
<g id="edge13" class="edge">
<title>[root] tencentcloud_mysql_instance.mysql_demo (expand)&#45;&gt;[root] tencentcloud_subnet.subnet_demo (expand)</title>
<path fill="none" stroke="black" d="M425.11,-287.97C391.14,-278.01 348.09,-265.41 312.52,-254.99"/>
<polygon fill="black" stroke="black" points="313.28,-251.56 302.7,-252.11 311.31,-258.28 313.28,-251.56"/>
</g>
<!-- [root] tencentcloud_route_table.rtb_demo (expand) -->
<g id="node4" class="node">
<title>[root] tencentcloud_route_table.rtb_demo (expand)</title>
<polygon fill="none" stroke="black" points="343.77,-180 134.77,-180 134.77,-144 343.77,-144 343.77,-180"/>
<text text-anchor="middle" x="239.27" y="-158.3" font-family="Times,serif" font-size="14.00">tencentcloud_route_table.rtb_demo</text>
</g>
<!-- [root] tencentcloud_vpc.vpc_demo (expand) -->
<g id="node8" class="node">
<title>[root] tencentcloud_vpc.vpc_demo (expand)</title>
<polygon fill="none" stroke="black" points="390.77,-108 217.77,-108 217.77,-72 390.77,-72 390.77,-108"/>
<text text-anchor="middle" x="304.27" y="-86.3" font-family="Times,serif" font-size="14.00">tencentcloud_vpc.vpc_demo</text>
</g>
<!-- [root] tencentcloud_route_table.rtb_demo (expand)&#45;&gt;[root] tencentcloud_vpc.vpc_demo (expand) -->
<g id="edge14" class="edge">
<title>[root] tencentcloud_route_table.rtb_demo (expand)&#45;&gt;[root] tencentcloud_vpc.vpc_demo (expand)</title>
<path fill="none" stroke="black" d="M255.34,-143.7C263.21,-135.22 272.83,-124.86 281.45,-115.58"/>
<polygon fill="black" stroke="black" points="284.15,-117.81 288.39,-108.1 279.02,-113.05 284.15,-117.81"/>
</g>
<!-- [root] tencentcloud_security_group.sg_demo (expand)&#45;&gt;[root] provider[&quot;registry.terraform.io/tencentcloudstack/tencentcloud&quot;] -->
<g id="edge15" class="edge">
<title>[root] tencentcloud_security_group.sg_demo (expand)&#45;&gt;[root] provider[&quot;registry.terraform.io/tencentcloudstack/tencentcloud&quot;]</title>
<path fill="none" stroke="black" d="M481.78,-215.83C479.65,-197.31 474.64,-167.36 463.27,-144 443.93,-104.23 409.64,-65.96 386.2,-42.47"/>
<polygon fill="black" stroke="black" points="388.59,-39.91 379.01,-35.38 383.67,-44.9 388.59,-39.91"/>
</g>
<!-- [root] tencentcloud_security_group_rule.sg_rule_demo (expand) -->
<g id="node6" class="node">
<title>[root] tencentcloud_security_group_rule.sg_rule_demo (expand)</title>
<polygon fill="none" stroke="black" points="909.27,-324 627.27,-324 627.27,-288 909.27,-288 909.27,-324"/>
<text text-anchor="middle" x="768.27" y="-302.3" font-family="Times,serif" font-size="14.00">tencentcloud_security_group_rule.sg_rule_demo</text>
</g>
<!-- [root] tencentcloud_security_group_rule.sg_rule_demo (expand)&#45;&gt;[root] tencentcloud_security_group.sg_demo (expand) -->
<g id="edge16" class="edge">
<title>[root] tencentcloud_security_group_rule.sg_rule_demo (expand)&#45;&gt;[root] tencentcloud_security_group.sg_demo (expand)</title>
<path fill="none" stroke="black" d="M698.92,-287.97C657.8,-277.87 605.53,-265.03 562.75,-254.52"/>
<polygon fill="black" stroke="black" points="563.49,-251.1 552.94,-252.11 561.82,-257.9 563.49,-251.1"/>
</g>
<!-- [root] tencentcloud_subnet.subnet_demo (expand)&#45;&gt;[root] tencentcloud_route_table.rtb_demo (expand) -->
<g id="edge17" class="edge">
<title>[root] tencentcloud_subnet.subnet_demo (expand)&#45;&gt;[root] tencentcloud_route_table.rtb_demo (expand)</title>
<path fill="none" stroke="black" d="M243.04,-215.7C242.49,-207.98 241.83,-198.71 241.21,-190.11"/>
<polygon fill="black" stroke="black" points="244.7,-189.83 240.5,-180.1 237.72,-190.33 244.7,-189.83"/>
</g>
<!-- [root] var.default_az -->
<g id="node9" class="node">
<title>[root] var.default_az</title>
<polygon fill="none" stroke="black" points="448.77,-180 361.77,-180 361.77,-144 454.77,-144 454.77,-174 448.77,-180"/>
<polyline fill="none" stroke="black" points="448.77,-180 448.77,-174 "/>
<polyline fill="none" stroke="black" points="454.77,-174 448.77,-174 "/>
<text text-anchor="middle" x="408.27" y="-158.3" font-family="Times,serif" font-size="14.00">var.default_az</text>
</g>
<!-- [root] tencentcloud_subnet.subnet_demo (expand)&#45;&gt;[root] var.default_az -->
<g id="edge18" class="edge">
<title>[root] tencentcloud_subnet.subnet_demo (expand)&#45;&gt;[root] var.default_az</title>
<path fill="none" stroke="black" d="M284.39,-215.88C306.91,-206.26 335.19,-194.19 359.05,-184.01"/>
<polygon fill="black" stroke="black" points="360.46,-187.21 368.29,-180.07 357.71,-180.77 360.46,-187.21"/>
</g>
<!-- [root] tencentcloud_vpc.vpc_demo (expand)&#45;&gt;[root] provider[&quot;registry.terraform.io/tencentcloudstack/tencentcloud&quot;] -->
<g id="edge19" class="edge">
<title>[root] tencentcloud_vpc.vpc_demo (expand)&#45;&gt;[root] provider[&quot;registry.terraform.io/tencentcloudstack/tencentcloud&quot;]</title>
<path fill="none" stroke="black" d="M318.36,-71.7C325.3,-63.18 333.78,-52.76 341.37,-43.45"/>
<polygon fill="black" stroke="black" points="344.14,-45.59 347.74,-35.62 338.71,-41.17 344.14,-45.59"/>
</g>
<!-- [root] var.default_region -->
<g id="node10" class="node">
<title>[root] var.default_region</title>
<polygon fill="none" stroke="black" points="1037.27,-324 927.27,-324 927.27,-288 1043.27,-288 1043.27,-318 1037.27,-324"/>
<polyline fill="none" stroke="black" points="1037.27,-324 1037.27,-318 "/>
<polyline fill="none" stroke="black" points="1043.27,-318 1037.27,-318 "/>
<text text-anchor="middle" x="985.27" y="-302.3" font-family="Times,serif" font-size="14.00">var.default_region</text>
</g>
<!-- [root] meta.count&#45;boundary (EachMode fixup) -->
<g id="node11" class="node">
<title>[root] meta.count&#45;boundary (EachMode fixup)</title>
<ellipse fill="none" stroke="black" cx="768.27" cy="-378" rx="176.27" ry="18"/>
<text text-anchor="middle" x="768.27" y="-374.3" font-family="Times,serif" font-size="14.00">[root] meta.count&#45;boundary (EachMode fixup)</text>
</g>
<!-- [root] meta.count&#45;boundary (EachMode fixup)&#45;&gt;[root] tencentcloud_instance.cvm_demo (expand) -->
<g id="edge1" class="edge">
<title>[root] meta.count&#45;boundary (EachMode fixup)&#45;&gt;[root] tencentcloud_instance.cvm_demo (expand)</title>
<path fill="none" stroke="black" d="M658.07,-363.94C575.77,-353.99 460.26,-339.61 349.56,-324.16"/>
<polygon fill="black" stroke="black" points="349.94,-320.68 339.55,-322.76 348.97,-327.61 349.94,-320.68"/>
</g>
<!-- [root] meta.count&#45;boundary (EachMode fixup)&#45;&gt;[root] tencentcloud_mysql_instance.mysql_demo (expand) -->
<g id="edge2" class="edge">
<title>[root] meta.count&#45;boundary (EachMode fixup)&#45;&gt;[root] tencentcloud_mysql_instance.mysql_demo (expand)</title>
<path fill="none" stroke="black" d="M703.96,-361.2C662.06,-350.91 607.1,-337.41 562.51,-326.46"/>
<polygon fill="black" stroke="black" points="563.13,-323.01 552.59,-324.02 561.46,-329.81 563.13,-323.01"/>
</g>
<!-- [root] meta.count&#45;boundary (EachMode fixup)&#45;&gt;[root] tencentcloud_security_group_rule.sg_rule_demo (expand) -->
<g id="edge3" class="edge">
<title>[root] meta.count&#45;boundary (EachMode fixup)&#45;&gt;[root] tencentcloud_security_group_rule.sg_rule_demo (expand)</title>
<path fill="none" stroke="black" d="M768.27,-359.7C768.27,-351.98 768.27,-342.71 768.27,-334.11"/>
<polygon fill="black" stroke="black" points="771.77,-334.1 768.27,-324.1 764.77,-334.1 771.77,-334.1"/>
</g>
<!-- [root] meta.count&#45;boundary (EachMode fixup)&#45;&gt;[root] var.default_region -->
<g id="edge4" class="edge">
<title>[root] meta.count&#45;boundary (EachMode fixup)&#45;&gt;[root] var.default_region</title>
<path fill="none" stroke="black" d="M818.88,-360.68C849.88,-350.68 889.81,-337.8 922.78,-327.16"/>
<polygon fill="black" stroke="black" points="923.88,-330.48 932.32,-324.08 921.73,-323.82 923.88,-330.48"/>
</g>
<!-- [root] provider[&quot;registry.terraform.io/tencentcloudstack/tencentcloud&quot;] (close) -->
<g id="node12" class="node">
<title>[root] provider[&quot;registry.terraform.io/tencentcloudstack/tencentcloud&quot;] (close)</title>
<ellipse fill="none" stroke="black" cx="287.27" cy="-378" rx="287.05" ry="18"/>
<text text-anchor="middle" x="287.27" y="-374.3" font-family="Times,serif" font-size="14.00">[root] provider[&quot;registry.terraform.io/tencentcloudstack/tencentcloud&quot;] (close)</text>
</g>
<!-- [root] provider[&quot;registry.terraform.io/tencentcloudstack/tencentcloud&quot;] (close)&#45;&gt;[root] tencentcloud_instance.cvm_demo (expand) -->
<g id="edge5" class="edge">
<title>[root] provider[&quot;registry.terraform.io/tencentcloudstack/tencentcloud&quot;] (close)&#45;&gt;[root] tencentcloud_instance.cvm_demo (expand)</title>
<path fill="none" stroke="black" d="M275.16,-359.7C269.41,-351.47 262.41,-341.48 256.07,-332.42"/>
<polygon fill="black" stroke="black" points="258.85,-330.29 250.25,-324.1 253.11,-334.3 258.85,-330.29"/>
</g>
<!-- [root] provider[&quot;registry.terraform.io/tencentcloudstack/tencentcloud&quot;] (close)&#45;&gt;[root] tencentcloud_mysql_instance.mysql_demo (expand) -->
<g id="edge6" class="edge">
<title>[root] provider[&quot;registry.terraform.io/tencentcloudstack/tencentcloud&quot;] (close)&#45;&gt;[root] tencentcloud_mysql_instance.mysql_demo (expand)</title>
<path fill="none" stroke="black" d="M334.22,-360.23C361.69,-350.42 396.59,-337.96 425.71,-327.56"/>
<polygon fill="black" stroke="black" points="427.11,-330.78 435.35,-324.12 424.75,-324.18 427.11,-330.78"/>
</g>
<!-- [root] provider[&quot;registry.terraform.io/tencentcloudstack/tencentcloud&quot;] (close)&#45;&gt;[root] tencentcloud_security_group_rule.sg_rule_demo (expand) -->
<g id="edge7" class="edge">
<title>[root] provider[&quot;registry.terraform.io/tencentcloudstack/tencentcloud&quot;] (close)&#45;&gt;[root] tencentcloud_security_group_rule.sg_rule_demo (expand)</title>
<path fill="none" stroke="black" d="M395.22,-361.29C468.12,-350.68 564.64,-336.63 641.24,-325.49"/>
<polygon fill="black" stroke="black" points="642.05,-328.91 651.44,-324 641.04,-321.98 642.05,-328.91"/>
</g>
<!-- [root] root -->
<g id="node13" class="node">
<title>[root] root</title>
<ellipse fill="none" stroke="black" cx="527.27" cy="-450" rx="47.39" ry="18"/>
<text text-anchor="middle" x="527.27" y="-446.3" font-family="Times,serif" font-size="14.00">[root] root</text>
</g>
<!-- [root] root&#45;&gt;[root] meta.count&#45;boundary (EachMode fixup) -->
<g id="edge8" class="edge">
<title>[root] root&#45;&gt;[root] meta.count&#45;boundary (EachMode fixup)</title>
<path fill="none" stroke="black" d="M563.88,-438.37C600.68,-427.68 658.21,-410.97 702.87,-398"/>
<polygon fill="black" stroke="black" points="703.86,-401.36 712.48,-395.21 701.9,-394.63 703.86,-401.36"/>
</g>
<!-- [root] root&#45;&gt;[root] provider[&quot;registry.terraform.io/tencentcloudstack/tencentcloud&quot;] (close) -->
<g id="edge9" class="edge">
<title>[root] root&#45;&gt;[root] provider[&quot;registry.terraform.io/tencentcloudstack/tencentcloud&quot;] (close)</title>
<path fill="none" stroke="black" d="M490.82,-438.37C454.74,-427.84 398.64,-411.48 354.47,-398.6"/>
<polygon fill="black" stroke="black" points="355.25,-395.18 344.67,-395.74 353.29,-401.9 355.25,-395.18"/>
</g>
</g>
</svg>
